<svg version="1.2" xmlns="http://www.w3.org/2000/svg" viewBox="0 0 1024 1024" width="1024" height="1024"><style>.a{fill:#434343}.b{fill:#05fe82}</style><path class="a" d="m290.9 434.8l-77.4 76.8c44.2 43.4 60.4 59.1 64.5 63.1 4.1 3.9 9.5 8.1 12 9.3 2.5 1.3 9 4.1 14.5 6.3 9.6 3.9 10.5 4 23.5 4.4 8.8 0.3 13.8 0 14.3-0.6 0.4-0.7-15.5-17.5-38.8-41.1-21.7-22-39.5-40.6-39.5-41.3 0-0.6 24-25.2 53.3-54.4l53.2-53.3c70.5 70.5 91.6 91 92.3 91 0.6 0 5.8-4.9 11.5-11 5.6-6 10.2-11.4 10.2-12 0-0.5-6.3-7.6-14.1-15.7-7.8-8.2-33.3-33.5-56.8-56.3-23.4-22.8-43.2-41.6-43.9-41.8-0.7-0.1-36.2 34.3-78.8 76.6z"/><path class="b" d="m463.5 294.2c-26 25.9-47.4 47.9-47.4 48.7-0.1 0.9 5 6.8 11.4 13.1l11.4 11.5c10.5-10 26.8-26 42.9-42 16.1-15.9 29.7-29.1 30.2-29.2 0.6-0.2 16 14.4 34.3 32.5 18.3 18 35.9 35.3 39.2 38.5l6 5.7c14-6.1 21.5-8.9 25.8-10.2 4.2-1.3 7.7-2.6 7.7-3 0-0.5-25.1-26-55.8-56.8-30.6-30.7-56.3-55.9-57-56-0.8 0-22.7 21.2-48.7 47.2zm-36 373.6c-6.6 6.4-11.9 12.2-11.7 12.7 0.1 0.6 21.8 22.6 48.2 49l48 48c22.1-21.7 43.9-43.3 62.8-62 18.8-18.7 34.2-34.5 34.2-35 0-0.5-5.1-6.1-11.2-12.4-6.2-6.2-11.9-11.1-12.6-11-0.7 0.2-16 15-34 32.9-18 17.9-34.2 33.9-36 35.5l-3.3 3-72.4-72.5z"/><path class="a" d="m681.2 430.1c-0.1 0.8 17.6 19.3 39.3 41.1 21.7 21.9 39.5 40.4 39.5 41 0 0.7-23.8 25-52.8 54.1l-52.7 52.7c-61.2-61.3-82.3-82.1-86.3-85.8l-7.4-6.7-23.3 23.5c76 76.1 102.4 102.1 107.7 107.1l9.8 8.9 155.2-154.5c-28.5-27.9-44.6-43.6-54.2-52.9-14.6-14.2-18.6-17.5-24-19.9-3.6-1.6-10.1-4.3-14.5-5.9-7.1-2.7-9.6-3.1-22.1-3.6-11.6-0.4-14.1-0.2-14.2 0.9z"/><path class="b" d="m625.8 385c-4.3 1.1-11.3 3.7-15.5 5.7-7.2 3.4-9.9 5.8-33.8 29.3-14.2 14-57.7 57-96.5 95.6-38.8 38.5-75.4 74.7-81.5 80.3-7.1 6.5-13.1 11.1-17 13-3.3 1.6-8.2 3.7-11 4.6-2.9 1-9.4 2-15.5 2.2-8.5 0.4-12 0.1-18.5-1.6-4.4-1.1-10.7-3.1-14-4.4-3.3-1.3-9.3-4.4-13.2-7-4-2.6-7.7-4.5-8.3-4.2-0.5 0.3 0.2 1.9 1.8 3.6 1.5 1.7 7.7 7.3 13.8 12.3 6.2 5 14.7 11.2 19 13.7 4.4 2.6 11.1 6 14.9 7.6 3.9 1.7 9.5 3.6 12.5 4.4 3.5 0.9 10.6 1.4 19.5 1.3 13.3 0 14.4-0.2 22-3.2 4.4-1.7 10.1-4.5 12.8-6.2 2.6-1.6 9.3-7.3 15-12.7 5.6-5.3 48.9-47.9 96.1-94.7 47.3-46.8 90.9-89.8 97-95.5 9.2-8.7 12.6-11.2 20.1-14.7 8-3.8 10.2-4.4 20-5.3 7.7-0.8 13-0.8 17.5 0 3.6 0.6 9.2 1.9 12.5 3.1 3.3 1.1 8.3 3.2 11 4.6 2.8 1.4 7.4 4 10.3 5.9 2.8 1.8 5.7 3.3 6.2 3.3 0.5 0 1-0.4 1-1 0-0.6-4.8-5.2-10.6-10.2-5.8-5.1-14.7-12.1-19.8-15.5-5-3.5-12.5-7.7-16.6-9.4-4.1-1.8-9.7-3.8-12.5-4.6-2.7-0.8-10.8-1.6-18-1.9-10.7-0.3-14.3 0-20.7 1.6z"/></svg>
